# Blender v2.92.0 OBJ File: ''
# www.blender.org
mtllib rockwall_scatter_c.mtl
o RockWall_Rock1_Retopo.002_Plane.022
v -0.595680 -0.272207 1.931890
v -0.811180 -0.052158 1.788010
v -0.808361 -0.146703 1.767141
v -0.578499 0.023451 2.011491
v -0.275738 -0.459635 1.881258
v -0.310154 0.326853 2.102221
v -0.961555 -0.095531 1.458714
v -1.057201 0.024032 1.172389
v -1.043949 -0.089121 1.170555
v -1.131596 -0.128482 0.608665
v -0.964386 0.035839 1.485008
v -0.915035 0.227690 1.298210
v -0.879875 0.229975 1.408996
v -0.554401 0.706292 1.376460
v -0.098080 0.595100 2.128236
v 0.111797 0.531823 2.177166
v 0.105450 0.684708 2.187613
v 0.154102 0.940355 2.113276
v -0.138889 1.166129 1.475034
v -0.170193 1.210803 1.268644
v 0.281628 0.854226 2.180893
v 0.850288 0.183579 2.048961
v 0.805878 -0.167230 1.955629
v 1.056606 0.143802 1.840551
v 0.516930 -0.597803 1.683575
v 0.284035 -0.562286 1.844416
v 0.351921 -0.647097 1.718038
v 0.462978 -0.683219 1.417235
v 1.074032 0.402837 1.654428
v 1.096401 0.162713 1.583155
v 1.097374 0.421740 1.458133
v 1.163246 0.175620 0.480458
v 0.406261 -0.802548 0.399179
v 0.930386 -0.185440 -0.562740
v 1.014519 0.094724 -0.597977
v 0.947716 0.040291 -1.150640
v 0.840595 -0.194755 -1.404979
v 0.831928 0.053652 -1.466398
v 0.665833 -0.043006 -1.976196
v 0.215488 -0.948021 -1.428388
v 0.306843 -0.930785 -0.569641
v 0.049351 -0.992591 -1.291148
v 0.869610 -0.193524 -1.180761
v -0.142303 -0.991678 -1.465760
v 0.160362 -0.896580 -1.733955
v 0.150154 -0.683299 -2.153416
v 0.187008 -0.430718 -2.440929
v -0.087566 -0.522551 -2.423876
v 0.424690 -0.074886 -2.347526
v 0.279221 -0.246330 -2.493099
v -0.111961 -0.605073 1.673642
v 0.268711 -0.627957 1.779092
v -0.376678 -0.481757 1.776075
v -0.392162 -0.733267 0.405572
v -0.986637 -0.406109 -0.274418
v -1.095314 -0.122918 -0.054550
v -1.062389 -0.245978 -0.330066
v -1.046726 -0.383550 -0.397868
v -1.042442 -0.327660 -0.811298
v -0.961082 -0.518087 -0.764660
v -0.932510 -0.594412 -1.364375
v -0.840069 -0.725551 -1.367917
v -0.678402 -0.822587 -1.657359
v -0.586422 -0.805046 -0.763049
v -0.411713 -0.895366 -0.888500
v -0.323071 -0.972412 -1.457341
v -0.778912 -0.593595 -1.837316
v -0.688992 0.303263 -1.359849
v -0.396061 0.303990 -2.233310
v -0.422310 -0.509102 -2.364321
v -0.562786 -0.422161 -2.330745
v -0.398495 -0.433413 -2.430801
v -0.484249 -0.314088 -2.441900
v 0.421474 0.949956 1.993207
v 0.336239 1.082114 1.832217
v 0.015240 1.256397 1.473188
v 0.767994 0.739412 1.776941
v -0.347275 0.609502 -1.616994
v 0.519997 0.407512 -1.010826
v -0.992702 -0.099258 -0.769333
v -0.509483 0.528288 -1.499257
v -0.302608 0.130421 -2.499016
v -0.276432 0.346849 -2.238280
v -0.154690 0.166153 -2.523788
v -0.297203 0.846263 -0.938384
v 0.071579 0.049607 -2.526759
v -0.092026 1.146052 0.423317
v -1.075157 -0.291085 -0.403326
v -0.223858 1.023821 -0.098942
v -0.100040 1.039878 -0.070755
v -0.162628 1.147328 0.445198
vt 0.155841 0.726552
vt 0.139395 0.703513
vt 0.147305 0.702941
vt 0.180344 0.968352
vt 0.160057 0.924254
vt 0.214598 0.964646
vt 0.144715 0.673976
vt 0.133033 0.649628
vt 0.142376 0.648785
vt 0.139306 0.601561
vt 0.133698 0.675995
vt 0.115577 0.663945
vt 0.115829 0.673334
vt 0.069620 0.680438
vt 0.243096 0.962865
vt 0.248772 0.945150
vt 0.258691 0.952524
vt 0.278183 0.962773
vt 0.129466 0.729279
vt 0.098400 0.745621
vt 0.021896 0.699899
vt 0.016306 0.682915
vt 0.070600 0.754408
vt 0.034390 0.760559
vt 0.278175 0.948588
vt 0.258286 0.878209
vt 0.843764 0.784541
vt 0.816179 0.768807
vt 0.847613 0.762091
vt 0.183098 0.857367
vt 0.231425 0.864144
vt 0.178639 0.880717
vt 0.406379 0.699528
vt 0.413718 0.687553
vt 0.428282 0.689098
vt 0.427465 0.664329
vt 0.871110 0.755060
vt 0.853454 0.743496
vt 0.876934 0.739007
vt 0.874211 0.654819
vt 0.771306 0.718574
vt 0.776659 0.741310
vt 0.773141 0.632950
vt 0.851506 0.563917
vt 0.875958 0.564011
vt 0.875492 0.517411
vt 0.856547 0.494348
vt 0.876934 0.489204
vt 0.867373 0.444690
vt 0.429904 0.423300
vt 0.433623 0.495460
vt 0.415248 0.434662
vt 0.855333 0.512791
vt 0.771862 0.551001
vt 0.777435 0.479183
vt 0.400280 0.420439
vt 0.424852 0.396406
vt 0.782289 0.453116
vt 0.801848 0.418903
vt 0.420479 0.323993
vt 0.420029 0.356679
vt 0.397199 0.332125
vt 0.859104 0.408454
vt 0.824575 0.396104
vt 0.842217 0.393697
vt 0.376843 0.679225
vt 0.406208 0.691512
vt 0.352474 0.686210
vt 0.358868 0.696628
vt 0.328029 0.699814
vt 0.365924 0.572014
vt 0.307425 0.686094
vt 0.294515 0.659943
vt 0.288681 0.635462
vt 0.285768 0.587618
vt 0.311095 0.512827
vt 0.285766 0.531893
vt 0.295993 0.508462
vt 0.306967 0.502022
vt 0.303051 0.468097
vt 0.320188 0.472374
vt 0.329027 0.423276
vt 0.341846 0.424358
vt 0.358387 0.403579
vt 0.359158 0.474513
vt 0.375814 0.465278
vt 0.432787 0.578317
vt 0.386099 0.421008
vt 0.116708 0.391550
vt 0.057928 0.451735
vt 0.031492 0.383299
vt 0.342504 0.385238
vt 0.369084 0.338944
vt 0.213788 0.597917
vt 0.227813 0.597352
vt 0.214843 0.606327
vt 0.188647 0.610555
vt 0.225569 0.611698
vt 0.534674 0.562692
vt 0.520177 0.564953
vt 0.518892 0.543889
vt 0.533076 0.531466
vt 0.006146 0.748360
vt 0.007832 0.705066
vt 0.451366 0.511392
vt 0.452166 0.494593
vt 0.488279 0.523265
vt 0.446944 0.553739
vt 0.577565 0.240658
vt 0.504179 0.291077
vt 0.469283 0.249538
vt 0.131526 0.430534
vt 0.107955 0.490876
vt 0.085408 0.355762
vt 0.072224 0.349701
vt 0.032770 0.444862
vt 0.033126 0.357158
vt 0.228663 0.651642
vt 0.021469 0.381935
vt 0.021421 0.353000
vt 0.017164 0.436450
vt 0.010045 0.495707
vt 0.126494 0.547848
vt 0.129927 0.522866
vt 0.528604 0.159239
vt 0.497314 0.173450
vt 0.499588 0.151391
vt 0.218967 0.659978
vt 0.171577 0.627501
vt 0.197859 0.659725
vt 0.171517 0.645137
vt 0.564480 0.186053
vt 0.571454 0.415771
vt 0.580381 0.485276
vt 0.565404 0.503016
vt 0.132190 0.516003
vt 0.479537 0.205615
vt 0.580489 0.300322
vt 0.579766 0.371292
vt 0.569766 0.374490
vt 0.008301 0.567364
vt 0.006007 0.613973
vt 0.577340 0.417282
vt 0.440925 0.411192
vt 0.453337 0.321517
vt 0.458765 0.275411
vt 0.158504 0.955279
vt 0.299046 0.501789
vt 0.355100 0.339945
vt 0.125755 0.482414
vt 0.549651 0.160281
vn -0.4548 -0.5311 0.7149
vn -0.7861 0.1451 0.6008
vn -0.7665 -0.4591 0.4492
vn -0.4828 0.0676 0.8731
vn -0.1510 -0.6321 0.7600
vn -0.4344 0.1434 0.8892
vn -0.8438 -0.4560 0.2830
vn -0.9565 0.2620 0.1282
vn -0.8577 -0.4736 0.1999
vn -0.9889 -0.1342 0.0643
vn -0.8875 0.2304 0.3990
vn -0.8261 0.5557 0.0937
vn -0.7735 0.5155 0.3686
vn -0.7767 0.5816 0.2419
vn -0.5072 0.3197 0.8004
vn -0.0345 -0.1376 0.9899
vn -0.1778 0.1074 0.9782
vn -0.2551 0.6751 0.6923
vn -0.6100 0.6956 0.3795
vn -0.5320 0.8459 0.0365
vn 0.2065 0.4032 0.8915
vn 0.4766 -0.0024 0.8791
vn 0.5171 -0.5165 0.6825
vn 0.8887 -0.1413 0.4362
vn 0.5619 -0.7564 0.3349
vn 0.0826 -0.5776 0.8121
vn 0.1228 -0.9282 0.3512
vn 0.4082 -0.9077 0.0970
vn 0.8777 0.3621 0.3140
vn 0.9524 -0.2900 0.0937
vn 0.8876 0.4607 0.0024
vn 0.9898 0.1181 -0.0799
vn 0.4034 -0.9109 0.0867
vn 0.8689 -0.4921 -0.0532
vn 0.9431 0.2994 -0.1445
vn 0.9400 0.2809 -0.1935
vn 0.8869 -0.3853 -0.2550
vn 0.8108 0.4739 -0.3434
vn 0.8498 0.2186 -0.4797
vn 0.4948 -0.8561 -0.1495
vn 0.3860 -0.9213 0.0480
vn 0.0712 -0.9974 0.0055
vn 0.8729 -0.4786 -0.0945
vn -0.0532 -0.9821 -0.1809
vn 0.3699 -0.8519 -0.3707
vn 0.3961 -0.7900 -0.4680
vn 0.4299 -0.4933 -0.7562
vn -0.0185 -0.5973 -0.8018
vn 0.7759 0.2443 -0.5817
vn 0.5118 -0.2568 -0.8198
vn -0.1955 -0.9367 0.2904
vn -0.0147 -0.8645 0.5024
vn -0.4336 -0.8436 0.3167
vn -0.3597 -0.9219 0.1441
vn -0.7528 -0.6388 0.1588
vn -0.9831 0.1721 -0.0621
vn -0.9933 -0.1079 0.0417
vn -0.8440 -0.5119 0.1602
vn -0.9883 -0.0398 -0.1475
vn -0.7805 -0.6217 0.0656
vn -0.9553 -0.2189 -0.1988
vn -0.6731 -0.7382 -0.0442
vn -0.4905 -0.8263 -0.2769
vn -0.4964 -0.8597 0.1203
vn -0.2699 -0.9578 0.0992
vn -0.2144 -0.9661 -0.1436
vn -0.8757 -0.2475 -0.4147
vn -0.8747 0.4493 -0.1816
vn -0.6559 0.5994 -0.4589
vn -0.3221 -0.7216 -0.6128
vn -0.8015 -0.2394 -0.5480
vn -0.2215 -0.3752 -0.9001
vn -0.5750 -0.0258 -0.8178
vn 0.5155 0.6628 0.5430
vn 0.3830 0.8943 0.2315
vn 0.0512 0.9870 0.1521
vn 0.6992 0.6604 0.2738
vn -0.1080 0.9292 -0.3534
vn 0.5238 0.8174 -0.2397
vn -0.9081 0.3894 -0.1540
vn -0.7270 0.6530 -0.2123
vn -0.4551 0.3186 -0.8315
vn 0.0410 0.8897 -0.4547
vn 0.0697 0.5146 -0.8546
vn -0.2384 0.9427 -0.2335
vn 0.2679 0.4088 -0.8724
vn 0.2905 0.9420 -0.1679
vn -0.9970 -0.0271 0.0730
vn -0.4869 0.8619 -0.1417
vn 0.2785 0.9371 -0.2105
vn -0.4363 0.8937 -0.1044
usemtl Rock_kit_01
s 1
f 1/1/1 2/2/2 3/3/3
f 4/4/4 5/5/5 6/6/6
f 2/2/2 7/7/7 3/3/3
f 7/7/7 8/8/8 9/9/9
f 9/9/9 8/8/8 10/10/10
f 11/11/11 12/12/12 8/8/8
f 12/12/12 13/13/13 14/14/14
f 15/15/15 6/6/6 16/16/16
f 15/15/15 16/16/16 17/17/17
f 17/17/17 18/18/18 15/15/15
f 13/13/13 2/2/2 4/19/4
f 13/13/13 6/20/6 14/14/14
f 19/21/19 20/22/20 14/14/14
f 14/14/14 6/20/6 15/23/15
f 19/21/19 15/23/15 18/24/18
f 16/16/16 21/25/21 17/17/17
f 16/16/16 22/26/22 21/25/21
f 22/27/22 23/28/23 24/29/24
f 25/30/25 23/31/23 26/32/26
f 26/33/26 27/34/27 25/35/25
f 25/35/25 27/34/27 28/36/28
f 29/37/29 24/29/24 30/38/30
f 23/28/23 30/38/30 24/29/24
f 29/37/29 30/38/30 31/39/31
f 31/39/31 30/38/30 32/40/32
f 28/41/28 30/38/30 25/42/25
f 32/40/32 28/41/28 33/43/33
f 33/43/33 34/44/34 32/40/32
f 34/44/34 35/45/35 32/40/32
f 34/44/34 36/46/36 35/45/35
f 36/46/36 37/47/37 38/48/38
f 38/48/38 37/47/37 39/49/39
f 40/50/40 41/51/41 42/52/42
f 43/53/43 41/54/41 40/55/40
f 40/50/40 44/56/44 45/57/45
f 40/55/40 37/47/37 43/53/43
f 39/49/39 45/58/45 46/59/46
f 47/60/47 46/61/46 48/62/48
f 49/63/49 46/59/46 47/64/47
f 49/63/49 47/64/47 50/65/50
f 26/33/26 51/66/51 52/67/52
f 53/68/53 51/66/51 5/69/5
f 5/69/5 1/70/1 53/68/53
f 51/66/51 53/68/53 54/71/54
f 1/70/1 3/72/3 53/68/53
f 3/72/3 7/73/7 53/68/53
f 53/68/53 9/74/9 54/71/54
f 10/75/10 54/71/54 9/74/9
f 55/76/55 54/71/54 10/75/10
f 56/77/56 55/76/55 10/75/10
f 57/78/57 58/79/58 55/76/55
f 58/79/58 59/80/59 60/81/60
f 60/81/60 61/82/61 62/83/62
f 61/82/61 63/84/63 62/83/62
f 55/76/55 58/79/58 64/85/64
f 64/85/64 65/86/65 54/71/54
f 58/79/58 60/81/60 64/85/64
f 60/81/60 62/83/62 64/85/64
f 65/86/65 64/85/64 62/83/62
f 28/36/28 52/67/52 51/66/51
f 28/36/28 54/71/54 33/87/33
f 41/51/41 54/71/54 65/86/65
f 42/52/42 41/51/41 65/86/65
f 66/88/66 42/52/42 65/86/65
f 42/52/42 66/88/66 44/56/44
f 67/89/67 68/90/68 69/91/69
f 67/92/67 70/93/70 63/84/63
f 70/94/70 71/95/71 72/96/72
f 48/97/48 70/94/70 72/96/72
f 72/96/72 71/95/71 73/98/73
f 44/56/44 66/88/66 63/84/63
f 45/57/45 63/84/63 70/93/70
f 46/61/46 70/93/70 48/62/48
f 6/6/6 26/32/26 16/16/16
f 22/26/22 26/32/26 23/31/23
f 18/99/18 21/100/21 74/101/74
f 18/99/18 74/101/74 75/102/75
f 18/24/18 75/103/75 76/104/76
f 29/105/29 31/106/31 77/107/77
f 74/101/74 77/107/77 75/102/75
f 22/27/22 24/29/24 29/37/29
f 77/107/77 21/100/21 22/108/22
f 18/24/18 76/104/76 19/21/19
f 20/22/20 19/21/19 76/104/76
f 78/109/78 79/110/79 38/111/38
f 61/112/61 80/113/80 68/90/68
f 67/89/67 69/91/69 71/114/71
f 69/91/69 73/115/73 71/114/71
f 69/91/69 68/90/68 81/116/81
f 82/117/82 73/115/73 69/91/69
f 48/97/48 73/98/73 82/118/82
f 82/117/82 83/119/83 84/120/84
f 69/91/69 78/121/78 83/119/83
f 78/121/78 69/91/69 81/116/81
f 78/121/78 81/116/81 85/122/85
f 56/123/56 80/113/80 57/124/57
f 86/125/86 49/126/49 50/127/50
f 48/97/48 84/128/84 47/129/47
f 47/129/47 86/130/86 50/131/50
f 86/125/86 83/132/83 49/126/49
f 85/122/85 68/90/68 80/113/80
f 87/133/87 20/134/20 76/135/76
f 57/78/57 55/76/55 56/77/56
f 80/113/80 88/136/88 57/124/57
f 14/14/14 8/8/8 12/12/12
f 39/137/39 83/132/83 78/109/78
f 39/137/39 78/109/78 38/111/38
f 85/138/85 89/139/89 90/140/90
f 89/141/89 80/113/80 56/123/56
f 10/10/10 89/141/89 56/123/56
f 8/8/8 91/142/91 10/10/10
f 91/143/91 90/140/90 89/139/89
f 90/140/90 79/110/79 85/138/85
f 32/144/32 90/140/90 87/133/87
f 31/106/31 87/133/87 76/135/76
f 77/107/77 76/135/76 75/102/75
f 35/145/35 79/110/79 90/140/90
f 36/146/36 38/111/38 79/110/79
f 54/71/54 55/76/55 64/85/64
f 77/107/77 22/108/22 29/105/29
f 1/1/1 4/19/4 2/2/2
f 4/4/4 1/147/1 5/5/5
f 2/2/2 11/11/11 7/7/7
f 7/7/7 11/11/11 8/8/8
f 11/11/11 13/13/13 12/12/12
f 17/17/17 21/25/21 18/18/18
f 13/13/13 11/11/11 2/2/2
f 13/13/13 4/19/4 6/20/6
f 19/21/19 14/14/14 15/23/15
f 26/33/26 52/67/52 27/34/27
f 23/28/23 25/42/25 30/38/30
f 28/41/28 32/40/32 30/38/30
f 33/43/33 41/54/41 34/44/34
f 34/44/34 43/53/43 36/46/36
f 36/46/36 43/53/43 37/47/37
f 43/53/43 34/44/34 41/54/41
f 40/50/40 42/52/42 44/56/44
f 40/55/40 45/58/45 37/47/37
f 39/49/39 37/47/37 45/58/45
f 49/63/49 39/49/39 46/59/46
f 26/33/26 5/69/5 51/66/51
f 53/68/53 7/73/7 9/74/9
f 57/78/57 88/148/88 58/79/58
f 58/79/58 88/148/88 59/80/59
f 60/81/60 59/80/59 61/82/61
f 61/82/61 67/92/67 63/84/63
f 62/83/62 63/84/63 66/88/66
f 66/88/66 65/86/65 62/83/62
f 28/36/28 27/34/27 52/67/52
f 28/36/28 51/66/51 54/71/54
f 41/51/41 33/87/33 54/71/54
f 67/89/67 61/112/61 68/90/68
f 67/92/67 71/149/71 70/93/70
f 45/57/45 44/56/44 63/84/63
f 46/61/46 45/57/45 70/93/70
f 6/6/6 5/5/5 26/32/26
f 22/26/22 16/16/16 26/32/26
f 77/107/77 74/101/74 21/100/21
f 78/109/78 85/138/85 79/110/79
f 61/112/61 59/150/59 80/113/80
f 48/97/48 72/96/72 73/98/73
f 82/117/82 69/91/69 83/119/83
f 48/97/48 82/118/82 84/128/84
f 47/129/47 84/128/84 86/130/86
f 86/125/86 84/151/84 83/132/83
f 85/122/85 81/116/81 68/90/68
f 87/133/87 91/143/91 20/134/20
f 80/113/80 59/150/59 88/136/88
f 14/14/14 20/22/20 8/8/8
f 39/137/39 49/126/49 83/132/83
f 89/141/89 85/122/85 80/113/80
f 10/10/10 91/142/91 89/141/89
f 8/8/8 20/22/20 91/142/91
f 91/143/91 87/133/87 90/140/90
f 32/144/32 35/145/35 90/140/90
f 31/106/31 32/144/32 87/133/87
f 77/107/77 31/106/31 76/135/76
f 35/145/35 36/146/36 79/110/79
