# Blender v2.92.0 OBJ File: ''
# www.blender.org
o tree_lod1
v 0.267113 15.905828 0.189169
v 0.234003 15.904079 0.135464
v -1.117573 0.157785 0.011266
v -0.023392 0.157325 1.105685
v 0.321656 15.907448 0.146222
v 1.068083 0.155763 0.012078
v -0.023322 0.156850 -1.082449
v 0.279001 15.903065 0.103574
v 2.274260 8.670006 -0.123540
v 0.980179 8.642709 1.982468
v 0.929640 8.501890 1.849749
v 2.136011 8.528937 -0.154920
v -0.691237 10.640517 0.302074
v -0.679457 10.977520 -0.336019
v 0.231408 13.248499 0.101886
v -0.099672 10.560904 0.906425
v 1.002613 12.607487 -0.467802
v 0.540695 12.932501 -0.771441
v 0.310535 16.099537 0.039064
v 0.051551 12.710329 -0.931156
v 0.102928 13.359989 -0.549984
v -0.150112 12.697958 -0.863015
v -0.434706 12.906063 -0.497851
v 0.185405 16.093414 0.068848
v -0.095314 9.150111 -1.512025
v 0.027589 11.657187 -0.476015
v 0.306672 11.647732 -0.241927
v 1.096281 9.953403 -0.164970
v 2.257744 8.684673 -0.412722
v 2.906141 5.155825 1.467841
v 1.532173 5.266801 2.731263
v 0.773428 6.638103 1.136110
v 0.536560 7.969841 -0.131829
v 1.484332 6.085285 -1.288563
v 2.340476 5.188357 -2.158880
v 2.924209 7.218197 -0.379438
v 2.727390 7.050556 1.000814
v 1.620966 8.448682 0.529173
v 2.580977 7.111208 1.308472
v 1.296317 7.675138 1.697296
v 0.308740 10.052489 -0.206665
v 3.531143 2.730604 -0.671373
v -0.160720 2.963693 -3.773889
v 0.590891 6.232892 0.000989
v 2.675896 7.244684 1.423240
v 1.349321 7.809773 1.835361
v -0.093039 7.299908 2.268336
v -1.150023 7.623258 1.206886
v -1.051461 7.497369 1.086741
v -0.042281 7.169002 2.125912
v -0.108893 10.144418 0.021356
v -0.852106 8.233725 0.661769
v -0.003204 10.130392 -0.574023
v -0.640097 7.759489 -1.597307
v -1.660304 7.300983 -0.416575
v -1.225446 7.580040 0.884391
v -0.267673 12.981075 0.464550
v 0.168410 12.484386 0.780909
v 0.682948 12.802959 0.549030
v 0.319952 16.070951 0.191389
v 0.195568 16.060806 0.197847
v 0.092209 13.316029 0.087289
v 0.184097 13.299564 0.240905
v 0.352178 13.303213 0.177282
v 0.318664 13.320944 0.001570
v 1.029025 12.518699 0.192129
v 0.659391 13.272343 0.101612
v 1.142122 12.580629 -0.034015
v 1.454218 10.697190 0.452667
v 1.227224 10.847379 -1.130382
v 0.731428 11.658137 -0.656777
v 3.071052 7.353748 -0.387293
v 0.734985 7.278411 -2.422286
v 0.195838 8.117799 -0.196251
v -2.607706 5.698225 -0.528713
v -0.655112 5.565058 2.861133
v 1.185594 5.390047 2.919030
v 0.825724 6.780118 1.266857
v 0.664868 8.085811 0.198226
v -1.269371 8.728058 1.431499
v -0.217926 11.647710 -0.050993
v -0.931691 9.938160 0.535065
v -0.838074 11.098819 -0.347207
v -0.600849 10.892256 -1.215739
v -0.499027 10.758664 -1.107191
v -0.165683 10.662036 1.065841
v 0.731414 7.158394 -2.262344
v 2.874422 7.182116 1.033542
v -1.486126 8.673701 1.034361
v -1.097973 8.814937 -1.406456
v -0.988644 8.688901 -1.296180
v -1.326874 8.553580 1.019975
v -0.640502 12.618961 0.021701
v -3.314861 3.104189 1.965726
v -1.541836 4.526735 0.875348
v 0.217746 6.128214 0.064540
v 1.029238 3.002047 3.209354
v 2.135493 8.544618 -0.338977
v 0.874960 9.770422 -0.077199
v 0.030966 11.587033 -0.188359
v -0.097115 9.018430 -1.361509
v -1.442588 5.609118 -2.385814
v 2.154044 5.368289 -2.527887
v 2.108059 5.204007 -2.423508
v -1.414266 5.443238 -2.277736
v -0.453375 12.552272 -0.001420
v -0.286399 12.822632 -0.392770
v 0.256409 15.950304 0.089423
v -0.140655 12.923828 0.321071
v -3.853595 2.916337 -0.666753
v -0.167019 2.811125 -3.644735
v -3.394376 3.133837 1.659459
v -0.154602 11.657179 -0.409704
v 1.086612 3.154028 3.326009
v 3.090079 2.808959 1.858204
v 2.060664 3.895007 1.129747
v 3.207710 2.786574 1.619779
v 0.355199 6.258370 0.411454
v -1.189413 8.589424 1.311561
v -2.504138 5.527810 -0.513552
v -1.530406 5.457522 -2.139320
v -0.630552 6.231579 -1.286549
v -3.383821 3.263899 2.064399
v -1.648333 4.683589 0.939022
v 1.627647 5.423345 2.811129
v 3.014561 5.314784 1.522377
v 2.449525 5.346529 -2.214460
v 1.579257 6.229773 -1.389116
v 0.771188 8.078560 -0.406148
v 2.988287 2.664631 1.764364
v 0.171200 12.433524 0.587507
v 0.553616 12.738419 0.410806
v 1.313961 10.586682 0.362589
v 0.471344 12.848679 -0.603626
v 0.825917 12.525337 -0.422763
v 0.960000 12.499334 -0.048872
v 0.473326 13.211531 0.060632
v 0.851395 12.450777 0.130225
v -0.535962 7.646062 -1.469684
v -1.496352 7.188937 -0.392850
v -1.059803 7.472383 0.853238
v -0.783341 9.833915 0.450669
v -3.513953 3.293632 1.672254
v -3.966592 3.079398 -0.692077
v -0.062274 12.612042 -0.705216
v -0.617520 5.402411 2.750985
v 1.186070 5.230764 2.798085
v -0.706324 6.385650 -1.389116
v -1.618299 5.627369 -2.197848
v 1.931009 3.757277 1.064797
v -0.706160 8.122460 0.582274
v 1.037468 10.868071 -1.353051
v 0.989859 10.731769 -1.214656
v 3.391002 2.589016 -0.653733
v 3.066806 2.646805 1.595107
v 1.752147 8.578373 0.606434
v 1.086668 10.722637 -1.061960
v 0.621933 11.544682 -0.533745
v 0.150030 13.286018 -0.370242
v 0.054926 12.621087 -0.752207
vt 0.251074 0.011217
vt 0.248617 0.010718
vt 0.069511 0.629429
vt 0.131081 0.642945
vt 0.253868 0.011535
vt 0.193458 0.651393
vt 0.256308 0.655552
vt 0.256309 0.011877
vt 0.246518 0.010000
vt 0.010000 0.608634
vt 0.022768 0.012829
vt 0.025215 0.012536
vt 0.025323 0.010291
vt 0.022768 0.010000
vt 0.350716 0.853961
vt 0.449308 0.791090
vt 0.441312 0.786034
vt 0.347653 0.845011
vt 0.871157 0.898993
vt 0.885620 0.926424
vt 0.989986 0.917507
vt 0.879432 0.858885
vt 0.980213 0.156335
vt 0.972798 0.073929
vt 0.908071 0.099328
vt 0.963156 0.035759
vt 0.941225 0.059182
vt 0.952148 0.028443
vt 0.912951 0.036446
vt 0.905011 0.097700
vt 0.741114 0.119264
vt 0.849701 0.123328
vt 0.853676 0.106602
vt 0.789250 0.058880
vt 0.728026 0.010000
vt 0.169360 0.888576
vt 0.206123 0.840930
vt 0.139613 0.767984
vt 0.060304 0.767309
vt 0.041933 0.846955
vt 0.018304 0.907921
vt 0.578902 0.178233
vt 0.636211 0.176070
vt 0.612450 0.103901
vt 0.649031 0.169714
vt 0.669755 0.114925
vt 0.579390 0.019697
vt 0.605585 0.751671
vt 0.605563 0.475511
vt 0.491462 0.619313
vt 0.098434 0.236126
vt 0.103531 0.303861
vt 0.112838 0.303156
vt 0.107851 0.232039
vt 0.071762 0.184281
vt 0.031484 0.147977
vt 0.024439 0.157293
vt 0.067386 0.188736
vt 0.163702 0.081037
vt 0.070679 0.117441
vt 0.163712 0.053089
vt 0.047714 0.010000
vt 0.010000 0.072556
vt 0.036001 0.130720
vt 0.860519 0.109768
vt 0.858388 0.171454
vt 0.910331 0.183239
vt 0.905285 0.102112
vt 0.903188 0.100231
vt 0.916956 0.575380
vt 0.914697 0.573128
vt 0.910839 0.574875
vt 0.910675 0.578281
vt 0.950591 0.193800
vt 0.934526 0.159823
vt 0.963877 0.185979
vt 0.820892 0.542325
vt 0.818664 0.636929
vt 0.878672 0.623564
vt 0.584028 0.773278
vt 0.725877 0.869810
vt 0.724653 0.742196
vt 0.670608 0.713680
vt 0.743473 0.399129
vt 0.901652 0.500756
vt 0.888493 0.342261
vt 0.900781 0.276717
vt 0.808545 0.332489
vt 0.743777 0.370991
vt 0.758112 0.252186
vt 0.840927 0.305739
vt 0.855326 0.143530
vt 0.794810 0.198988
vt 0.886762 0.749312
vt 0.899874 0.786762
vt 0.906745 0.781298
vt 0.894926 0.748333
vt 0.908326 0.720878
vt 0.919994 0.689553
vt 0.914396 0.683017
vt 0.220805 0.762681
vt 0.214294 0.757325
vt 0.214302 0.890583
vt 0.268132 0.922561
vt 0.271507 0.914862
vt 0.219370 0.884485
vt 0.740624 0.241662
vt 0.723994 0.152515
vt 0.719356 0.150884
vt 0.729446 0.242034
vt 0.858393 0.053775
vt 0.266401 0.201397
vt 0.331575 0.263079
vt 0.413895 0.212882
vt 0.375890 0.046695
vt 0.816979 0.541699
vt 0.732618 0.570956
vt 0.717408 0.622876
vt 0.801701 0.644932
vt 0.938062 0.500873
vt 0.650290 0.487545
vt 0.564010 0.357030
vt 0.557622 0.362963
vt 0.642270 0.491286
vt 0.318918 0.459120
vt 0.325844 0.443085
vt 0.261837 0.341978
vt 0.295889 0.463577
vt 0.376998 0.416584
vt 0.567127 0.302922
vt 0.307534 0.362684
vt 0.849732 0.130005
vt 0.398759 0.767098
vt 0.505200 0.802118
vt 0.499665 0.732696
vt 0.516416 0.800481
vt 0.474698 0.621078
vt 0.755590 0.260268
vt 0.833928 0.310639
vt 0.874249 0.843068
vt 0.874254 0.697092
vt 0.815639 0.727552
vt 0.729286 0.768313
vt 0.818888 0.900624
vt 0.869767 0.848484
vt 0.818418 0.814025
vt 0.290904 0.567652
vt 0.401972 0.565143
vt 0.736972 0.326136
vt 0.727894 0.260369
vt 0.710727 0.166058
vt 0.638655 0.191570
vt 0.565394 0.336726
vt 0.631242 0.342673
vt 0.719004 0.341213
vt 0.738677 0.348787
vt 0.478740 0.010000
vt 0.371468 0.037998
vt 0.261112 0.200276
vt 0.482958 0.020887
vt 0.272020 0.478271
vt 0.261112 0.466097
vt 0.719355 0.013035
vt 0.734582 0.116477
vt 0.915441 0.805515
vt 0.534795 0.810890
vt 0.513889 0.817156
vt 0.573686 0.965380
vt 0.500247 0.827273
vt 0.514571 0.862003
vt 0.491173 0.831126
vt 0.488105 0.853467
vt 0.284372 0.731315
vt 0.345111 0.725452
vt 0.381263 0.756828
vt 0.385782 0.752735
vt 0.347788 0.717936
vt 0.281448 0.720379
vt 0.627953 0.689832
vt 0.706158 0.691818
vt 0.611533 0.595756
vt 0.750792 0.751811
vt 0.815540 0.681896
vt 0.302331 0.364517
vt 0.375426 0.425587
vt 0.324474 0.463531
vt 0.334042 0.441619
vt 0.326686 0.423329
vt 0.319528 0.427343
vt 0.912397 0.496774
vt 0.893109 0.343289
vt 0.911712 0.278933
vt 0.683577 0.432660
vt 0.659512 0.491092
vt 0.738677 0.508370
vt 0.169380 0.078175
vt 0.163263 0.145888
vt 0.171385 0.146228
vt 0.177505 0.078132
vt 0.319526 0.267758
vt 0.397401 0.418588
vt 0.327161 0.484745
vt 0.656908 0.499612
vt 0.735610 0.516448
vt 0.334850 0.859121
vt 0.376056 0.783204
vt 0.046721 0.194432
vt 0.010000 0.373116
vt 0.046761 0.449994
vt 0.056373 0.446227
vt 0.020103 0.370835
vt 0.056355 0.198197
vt 0.574064 0.307751
vt 0.191905 0.126651
vt 0.192325 0.059655
vt 0.184501 0.061928
vt 0.184747 0.122762
vt 0.567918 0.092379
vt 0.494584 0.025629
vt 0.459056 0.097386
vt 0.415244 0.905250
vt 0.499799 0.965176
vt 0.499515 0.963761
vt 0.498293 0.963465
vt 0.497085 0.965409
vt 0.878762 0.684979
vt 0.957580 0.669974
vt 0.973534 0.616591
vt 0.350525 0.921071
vt 0.350388 0.929910
vt 0.976613 0.805653
vt 0.911155 0.795965
vt 0.871636 0.858054
vt 0.972338 0.810332
vt 0.666913 0.513566
vt 0.980483 0.848480
vt 0.700555 0.702211
vt 0.743577 0.754707
vt 0.736465 0.553858
vt 0.671781 0.507967
vt 0.160709 0.651025
vt 0.010000 0.642744
vt 0.196672 0.689403
vt 0.552834 0.840729
vt 0.554584 0.810210
vt 0.573673 0.820291
vt 0.560330 0.808053
vt 0.720035 0.082119
vt 0.709395 0.023220
vt 0.673733 0.018012
vt 0.966349 0.799152
vt 0.971464 0.798384
vt 0.967996 0.748224
vt 0.960752 0.747828
vt 0.970997 0.665444
vt 0.018016 0.046884
vt 0.018014 0.012024
vt 0.010132 0.010000
vt 0.010000 0.045480
vt 0.299547 0.473335
vt 0.273361 0.484817
vt 0.677960 0.931288
vt 0.641760 0.864606
vt 0.693486 0.921274
vt 0.567553 0.791773
vt 0.617245 0.919681
vt 0.574611 0.088362
vt 0.504107 0.019466
vt 0.557469 0.804523
vt 0.533573 0.798802
vt 0.507974 0.809697
vt 0.493125 0.823291
vt 0.308326 0.396931
vt 0.298449 0.367215
vt 0.290809 0.370327
vt 0.301012 0.400724
vt 0.033009 0.198855
vt 0.034773 0.175014
vt 0.015019 0.156127
vt 0.010191 0.163680
vt 0.026221 0.177114
vt 0.024213 0.196790
vt 0.386418 0.785123
vt 0.184952 0.056478
vt 0.233628 0.018963
vt 0.228109 0.010000
vt 0.180245 0.054254
vt 0.870504 0.689562
vt 0.812830 0.719614
vt 0.210441 0.836779
vt 0.151232 0.767556
vt 0.629106 0.697386
vt 0.163221 0.010287
vt 0.171340 0.010000
vt 0.033615 0.844799
vt 0.010172 0.904853
vt 0.605295 0.108273
vt 0.642100 0.173728
vt 0.814233 0.534452
vt 0.990000 0.846806
vt 0.815519 0.821686
vt 0.870152 0.850701
vt 0.711450 0.015479
vt 0.675921 0.010000
vt 0.201381 0.693056
vt 0.018902 0.234887
vt 0.010000 0.232890
vn -0.7125 0.0547 0.6995
vn 0.7075 0.0396 -0.7056
vn -0.7012 0.0664 -0.7098
vn 0.7039 0.0278 0.7098
vn -0.0338 0.9987 -0.0369
vn 0.6474 -0.6577 0.3851
vn 0.8109 -0.3243 -0.4871
vn 0.6434 0.2333 -0.7291
vn -0.2454 0.3070 -0.9195
vn 0.5349 0.4163 -0.7352
vn 0.5349 0.4164 -0.7352
vn -0.5011 -0.8572 -0.1192
vn -0.5011 -0.8571 -0.1192
vn -0.6506 -0.6527 -0.3882
vn -0.6506 -0.6526 -0.3882
vn 0.5470 0.5759 -0.6076
vn -0.2576 -0.8091 0.5282
vn -0.2577 -0.8091 0.5282
vn -0.2576 -0.8091 0.5281
vn -0.2464 0.6235 0.7420
vn -0.8049 0.5428 -0.2397
vn -0.0321 0.1880 0.9816
vn 0.0153 0.9951 0.0975
vn 0.9632 0.2449 0.1106
vn 0.9632 0.2449 0.1107
vn 0.8807 0.4424 -0.1692
vn 0.3101 0.5723 -0.7592
vn -0.3602 0.8438 0.3977
vn -0.0325 0.9762 0.2146
vn -0.2707 0.5116 0.8155
vn -0.6819 -0.6815 0.2656
vn 0.5044 -0.8059 -0.3101
vn -0.6409 -0.7545 -0.1417
vn -0.9577 0.2528 0.1376
vn 0.2183 -0.6893 -0.6908
vn -0.5778 -0.4339 0.6913
vn 0.3392 0.2396 0.9097
vn -0.0702 -0.5371 -0.8406
vn 0.9657 -0.1972 -0.1692
vn 0.4748 -0.7924 0.3829
vn -0.6477 0.6283 -0.4309
vn -0.6477 0.6284 -0.4309
vn 0.6590 0.6732 0.3354
vn 0.6591 0.6732 0.3354
vn -0.2048 -0.6682 0.7152
vn 0.2202 -0.7305 0.6464
vn 0.2202 -0.7305 0.6465
vn -0.2323 0.6760 0.6993
vn 0.3737 0.9201 0.1169
vn 0.3737 0.9201 0.1170
vn -0.0318 -0.7060 0.7075
vn -0.0318 -0.7059 0.7076
vn 0.0896 -0.1418 -0.9858
vn 0.1785 -0.6812 -0.7101
vn 0.1785 -0.6812 -0.7100
vn -0.3458 -0.2297 -0.9097
vn -0.5920 -0.2146 0.7769
vn -0.9603 -0.1856 -0.2083
vn -0.9603 -0.1856 -0.2082
vn -0.4452 -0.8842 -0.1412
vn 0.2647 -0.5155 -0.8149
vn 0.7489 -0.4935 0.4422
vn 0.7489 -0.4936 0.4422
vn 0.7489 -0.4935 0.4421
vn -0.7976 -0.5665 0.2072
vn -0.5435 -0.7548 -0.3673
vn -0.5436 -0.7547 -0.3673
vn -0.5435 -0.7547 -0.3673
vn -0.5509 -0.6320 0.5450
vn -0.2167 0.8003 -0.5591
vn -0.2167 0.8002 -0.5592
vn -0.2167 0.8003 -0.5592
vn -0.2166 0.8002 -0.5592
vn -0.2166 0.8003 -0.5592
vn 0.5652 0.0006 -0.8249
vn 0.3581 0.0303 0.9332
vn -0.3822 0.8495 -0.3637
vn -0.3823 0.8495 -0.3637
vn -0.7473 -0.5122 -0.4233
vn 0.8052 -0.5481 0.2264
vn 0.8052 -0.5481 0.2265
vn 0.7012 -0.7026 0.1214
vn 0.7012 -0.7026 0.1213
vn -0.3092 -0.5803 0.7534
vn -0.5501 -0.5097 -0.6615
vn -0.0682 -0.6809 -0.7292
vn -0.7641 -0.6291 0.1426
vn 0.7030 0.5961 0.3879
vn -0.3199 0.7390 -0.5929
vn -0.3704 0.0034 0.9289
vn 0.3188 -0.9419 0.1061
vn 0.3188 -0.9419 0.1060
vn -0.7754 -0.5374 -0.3317
vn -0.8798 -0.4093 0.2418
vn 0.4229 0.1896 0.8861
vn -0.0902 -0.0728 -0.9933
vn 0.3899 -0.8088 -0.4403
vn 0.2557 -0.2513 0.9335
vn 0.2324 -0.6472 -0.7260
vn 0.4970 -0.4959 0.7121
vn -0.8363 0.2594 0.4830
vn -0.0648 -0.2149 0.9745
vn 0.0576 -0.7460 0.6635
vn -0.7669 -0.6352 -0.0916
vn 0.6289 0.7189 0.2961
vn 0.5301 -0.7663 -0.3630
vn 0.5300 -0.7664 -0.3630
vn 0.5301 -0.7664 -0.3630
vn 0.3953 -0.8534 -0.3399
vn 0.3952 -0.8534 -0.3399
vn -0.9885 0.0232 0.1497
vn 0.3940 -0.7657 0.5084
vn 0.4047 0.1177 0.9068
vn 0.6837 -0.0174 -0.7295
vn 0.8630 -0.0609 0.5016
vn -0.8644 0.0773 0.4969
vn -0.7649 -0.2053 -0.6106
vn -0.5833 0.0907 -0.8072
vn -0.3633 0.0539 0.9301
vn -0.6648 0.0641 -0.7442
vn 0.6469 0.0006 -0.7625
vn 0.3246 0.1236 0.9377
vn -0.6523 0.0788 -0.7539
vn 0.9029 -0.1134 -0.4147
vn -0.8260 0.0969 0.5553
vn -0.7238 -0.1873 -0.6641
vn 0.9762 0.0130 -0.2166
vn 0.2630 0.0279 -0.9644
s 1
f 1/1/1 2/2/1 3/3/1 4/4/1
f 5/5/2 6/6/2 7/7/2 8/8/2
f 3/3/3 2/2/3 8/9/3 7/10/3
f 6/6/4 5/5/4 1/1/4 4/4/4
f 5/11/5 8/12/5 2/13/5 1/14/5
f 9/15/6 10/16/6 11/17/6 12/18/6
f 13/19/7 14/20/7 15/21/7 16/22/7
f 17/23/8 18/24/8 19/25/8
f 18/24/9 20/26/9 21/27/9 22/28/9 23/29/9 24/30/9 19/25/9
f 25/31/10 26/32/10 27/33/11 28/34/11 29/35/11
f 30/36/12 31/37/12 32/38/12 33/39/12 34/40/12 35/41/13
f 36/42/14 37/43/15 38/44/15 39/45/14 40/46/14 41/47/15
f 42/48/16 43/49/16 44/50/16
f 40/51/17 39/52/17 45/53/17 46/54/17 47/55/17 48/56/18 49/57/19 50/58/17
f 51/59/20 52/60/20 48/56/20 47/55/20 46/54/20
f 51/59/21 53/61/21 54/62/21 55/63/21 56/64/21 52/60/21
f 57/65/22 58/66/22 59/67/22 60/68/22 61/69/22
f 62/70/23 63/71/23 64/72/23 65/73/23
f 19/25/24 60/68/25 59/67/24 66/74/24 67/75/24 68/76/24 17/23/24
f 65/73/26 64/72/26 69/77/26 70/78/26 71/79/26
f 53/80/27 72/81/27 73/82/27 54/83/27
f 74/84/28 75/85/28 76/86/28 77/87/28 78/88/28 79/89/28
f 19/25/29 24/30/29 61/69/29 60/68/29
f 80/90/30 10/91/30 81/92/30 82/93/30
f 83/94/31 84/95/31 85/96/31 14/97/31 13/98/31 16/99/31 86/100/31
f 87/101/32 73/102/32 72/103/32 88/104/32 37/105/32 36/106/32
f 89/107/33 90/108/33 91/109/33 92/110/33
f 93/111/34 57/65/34 61/69/34 24/30/34 23/29/34
f 94/112/35 95/113/35 96/114/35 97/115/35
f 98/116/36 99/117/36 100/118/36 101/119/36
f 64/72/37 63/71/37 86/120/37 69/77/37
f 102/121/38 103/122/38 104/123/38 105/124/38
f 106/125/39 107/126/39 108/127/39 109/128/39
f 110/129/40 111/130/40 96/114/40 95/113/40 112/131/40
f 90/108/41 89/107/41 82/93/41 81/92/42 113/132/41 26/32/42 25/31/41
f 114/133/43 115/134/43 116/135/44 117/136/44 42/48/43 44/50/44 118/137/44
f 10/91/45 80/90/45 119/138/45 11/139/45
f 105/140/46 104/141/46 34/142/46 33/143/46 120/144/46 121/145/46 122/146/47
f 123/147/48 114/133/48 118/137/48 124/148/48
f 79/149/49 78/150/50 125/151/50 126/152/50 127/153/50 128/154/50 129/155/50 74/156/50
f 115/157/51 114/158/51 123/159/51 94/112/51 97/115/52 130/160/51
f 131/161/53 109/128/53 108/127/53 132/162/53
f 25/31/54 29/35/55 98/163/55 101/164/54 91/109/54 90/108/55
f 16/22/56 15/21/56 133/165/56
f 134/166/57 135/167/57 108/168/57
f 108/168/58 135/167/59 136/169/58 137/170/58 138/171/59 132/172/58
f 139/173/60 140/174/60 141/175/60 56/176/60 55/177/60 54/178/60 73/102/60 87/101/60
f 119/179/61 142/180/61 100/118/61 11/181/61
f 100/118/62 142/180/62 92/182/63 91/183/64 101/119/63
f 143/184/65 144/185/65 110/129/65 112/131/65
f 93/186/66 23/187/66 22/188/66 145/189/67 107/126/68 106/125/68
f 76/86/69 75/85/69 120/190/69 146/191/69 147/192/69 77/87/69
f 129/155/70 128/154/71 103/122/71 102/121/70 148/193/72 149/194/73 75/195/74 74/156/72
f 116/196/75 115/197/75 130/198/75 150/199/75
f 124/200/76 143/184/76 112/131/76 95/113/76
f 43/49/77 144/201/77 143/202/77 124/148/77 118/137/77 44/50/78
f 75/195/79 149/194/79 121/203/79 120/204/79
f 140/174/80 139/173/81 41/205/80 151/206/81 141/175/80
f 127/207/82 126/208/83 125/209/83 31/210/82 30/211/82 35/212/83
f 87/101/84 36/106/84 41/205/84 139/173/84
f 144/185/85 43/213/85 111/130/85 110/129/85
f 84/214/86 152/215/86 153/216/86 85/217/86
f 96/114/87 111/130/87 154/218/87 155/219/87 150/220/87 130/160/87 97/115/87
f 9/15/88 28/221/88 27/222/88 26/223/88 113/224/88 81/225/88 10/16/88
f 65/73/89 71/79/89 152/226/89 84/227/89 83/228/89 62/70/89
f 38/229/90 37/105/90 88/104/90 156/230/90
f 70/231/91 69/232/92 86/233/91 16/22/91 133/165/91 157/234/91
f 100/118/93 99/117/93 12/235/93 11/181/93
f 157/234/94 133/165/94 15/21/94 158/236/94
f 82/237/95 89/238/95 92/182/95 142/180/95
f 28/239/96 9/240/96 12/235/96 99/117/96
f 146/241/97 120/242/97 33/39/97 32/38/97 147/243/97
f 159/244/98 160/245/98 134/166/98 108/168/98 107/246/98 145/247/98
f 50/248/99 49/249/99 151/250/99 41/47/99 40/46/99
f 85/96/100 153/251/100 152/252/100 71/253/100 158/254/100 15/255/100 14/97/100
f 63/71/101 62/70/101 83/228/101 86/120/101
f 68/256/102 67/257/102 137/258/102 136/259/102
f 57/260/103 93/186/103 106/125/103 109/128/103
f 58/261/104 57/260/104 109/128/104 131/161/104
f 45/262/105 156/263/105 88/264/105 72/81/105 53/80/105 51/265/105 46/266/105
f 43/213/106 42/267/106 117/268/107 155/219/107 154/218/108 111/130/107
f 20/269/109 18/270/110 17/271/110 68/272/110 136/169/110 135/167/110 134/166/110 160/245/110
f 21/273/111 20/274/111 160/275/111 159/276/111
f 66/277/112 59/278/112 58/279/112 131/280/112 132/281/112 138/282/112
f 141/175/113 151/206/113 52/283/113 56/176/113
f 149/284/114 148/285/114 122/286/114 121/287/114
f 103/288/115 128/289/115 34/142/115 104/141/115
f 125/290/116 78/291/116 32/38/116 31/37/116
f 80/292/117 82/237/117 142/180/117 119/179/117
f 123/159/118 124/200/118 95/113/118 94/112/118
f 117/293/119 116/196/119 150/199/119 155/294/119
f 128/295/120 127/296/120 35/41/120 34/40/120
f 39/45/121 38/44/121 156/297/121 45/298/121
f 29/299/122 28/239/122 99/117/122 98/116/122
f 71/300/123 70/231/123 157/234/123 158/236/123
f 22/188/124 21/273/124 159/276/124 145/189/124
f 148/301/125 102/302/125 105/140/125 122/146/125
f 151/250/126 49/249/126 48/303/126 52/304/126
f 78/291/127 77/305/127 147/243/127 32/38/127
f 67/306/128 66/277/128 138/282/128 137/307/128
