# Blender v2.92.0 OBJ File: ''
# www.blender.org
o tree2_lod2
v 0.277218 15.907391 0.141926
v -0.023322 0.156850 -1.082449
v -0.590515 0.138753 0.457613
v 1.068083 0.155763 0.012078
v 0.294077 5.650839 0.305666
v 1.029238 3.002047 3.209354
v -3.420669 2.898419 2.052553
v -0.098640 10.553234 1.036156
v 1.381479 10.727405 0.388034
v -0.208607 12.991287 0.411484
v -0.793340 11.017151 -0.354466
v 0.955938 10.950524 -1.185313
v 0.776557 12.813607 -0.608578
v -0.442057 12.747771 -0.240416
v 0.256409 15.950304 0.089423
v 0.470358 12.644095 0.513910
v -0.239974 2.937497 -3.754107
v -3.909939 2.998517 -0.676941
v 2.927175 2.631817 1.786776
v 3.391002 2.589016 -0.653733
v -0.051267 7.728303 0.425802
v -2.270932 5.213110 -1.352609
v 1.762108 5.114709 -3.024656
v 2.678107 5.151814 3.195056
v 3.695770 5.209757 -1.237378
v -2.893878 4.861554 0.811792
v -1.847632 4.820911 2.925973
v 0.232254 11.147419 0.093987
v -0.194512 7.478229 2.374335
v -2.947095 7.334679 0.114945
v 1.176105 7.388812 -2.933793
v 2.721328 6.906086 0.425897
v -2.404064 7.473340 -1.963029
vt 0.275377 0.224039
vt 0.412800 0.493868
vt 0.412363 0.011480
vt 0.010000 0.267328
vt 0.545898 0.626373
vt 0.546245 0.425990
vt 0.329764 0.546337
vt 0.629711 0.862089
vt 0.648041 0.720466
vt 0.555118 0.796664
vt 0.502980 0.839133
vt 0.502970 0.685058
vt 0.010000 0.173131
vt 0.073019 0.162650
vt 0.010140 0.010000
vt 0.096169 0.134063
vt 0.101397 0.173118
vt 0.181808 0.045334
vt 0.157499 0.015403
vt 0.643994 0.218375
vt 0.417108 0.292432
vt 0.604223 0.463096
vt 0.629053 0.010000
vt 0.503966 0.052356
vt 0.744379 0.437238
vt 0.744705 0.051948
vt 0.098823 0.010000
vt 0.742927 0.420376
vt 0.661372 0.199777
vt 0.866604 0.275776
vt 0.224983 0.605994
vt 0.010000 0.677707
vt 0.188722 0.838612
vt 0.209517 0.408225
vt 0.091002 0.449212
vt 0.321647 0.813197
vt 0.319592 0.447347
vt 0.551172 0.673148
vt 0.724603 0.494771
vt 0.768660 0.667861
vt 0.928391 0.676885
vt 0.990000 0.438206
vt 0.778323 0.565541
vt 0.783948 0.584835
vt 0.777514 0.770670
vt 0.778395 0.387500
vn -0.2094 0.6914 0.6915
vn -0.2656 0.0798 -0.9608
vn -0.7158 0.0533 0.6963
vn 0.9393 0.0444 0.3403
vn -0.0000 1.0000 0.0000
vn -0.1950 0.6995 0.6875
vn -0.1614 0.2381 0.9577
vn 0.3642 0.2465 0.8981
vn -0.0799 0.9910 0.1074
vn -0.8435 0.3922 -0.3671
vn 0.8098 0.5702 -0.1382
vn 0.4420 0.6955 -0.5665
vn -0.2934 0.1610 -0.9423
vn -0.6215 0.2132 -0.7539
vn -0.6898 0.2907 -0.6631
vn -0.6085 0.1798 0.7729
vn -0.0871 0.1213 0.9888
vn 0.1127 0.9338 -0.3396
vn 0.0131 0.8305 -0.5568
vn -0.4814 0.8468 -0.2262
vn 0.6421 0.7063 0.2981
vn 0.6218 0.7231 -0.3008
vn -0.5505 0.8248 0.1289
vn 0.5132 0.6948 0.5039
vn 0.9563 0.0973 0.2756
vn -0.4623 -0.0112 -0.8866
vn -0.4598 -0.7966 0.3925
vn 0.7172 -0.6957 0.0407
vn 0.1149 0.9338 0.3388
vn 0.3253 0.8305 0.4521
vn 0.5204 0.8468 -0.1098
vn -0.6920 0.7063 0.1495
vn -0.3146 0.7231 0.6149
vn 0.3614 0.8248 -0.4348
vn -0.7132 0.6948 -0.0924
vn -0.5714 0.4801 0.6656
vn 0.7498 -0.5710 0.3343
vn -0.4436 -0.4703 -0.7629
vn 0.3793 0.6364 -0.6717
vn 0.4589 0.8474 -0.2670
vn 0.8449 0.5088 0.1650
vn -0.4742 0.6640 -0.5782
vn 0.5635 0.3878 0.7294
vn -0.7590 0.6321 -0.1562
s 1
f 1/1/1 2/2/2 3/3/3
f 4/4/4 1/1/1 3/3/3
f 4/4/4 2/2/2 1/1/1
f 6/5/5 5/6/6 7/7/5
f 8/8/7 9/9/8 10/10/9
f 11/11/10 8/8/7 10/10/9
f 10/10/9 9/9/11 12/12/12
f 12/12/12 11/11/10 10/10/9
f 13/13/13 14/14/14 15/15/15
f 15/15/15 14/14/14 10/16/16
f 15/17/15 10/18/16 16/19/17
f 5/20/18 17/21/19 18/22/20
f 5/20/18 19/23/21 20/24/22
f 5/20/18 18/22/20 7/25/23
f 19/23/21 5/20/18 6/26/24
f 5/20/18 20/24/22 17/21/19
f 16/19/25 13/27/25 15/17/25
f 21/28/26 23/29/27 22/30/28
f 21/31/29 24/32/30 25/33/31
f 21/31/29 26/34/32 27/35/33
f 21/31/29 25/33/31 23/36/34
f 26/34/32 21/31/29 22/37/35
f 21/31/29 27/35/33 24/32/30
f 28/38/36 30/39/37 29/40/38
f 31/41/39 28/42/40 32/43/41
f 33/44/42 28/38/40 31/45/39
f 28/42/40 29/46/43 32/43/41
f 33/44/42 30/39/44 28/38/40
