# Blender v2.92.0 OBJ File: ''
# www.blender.org
o Stone_1_Low_RetopoFlow.004
v 0.049324 0.226758 -0.159880
v -0.081013 0.243744 -0.094280
v -0.122603 0.219818 -0.091883
v -0.114222 0.118178 -0.119577
v 0.014795 0.085093 -0.213180
v -0.110336 0.058247 -0.128846
v -0.163807 0.108037 0.065038
v 0.131490 0.244745 -0.025094
v 0.030736 0.240735 0.120841
v 0.164315 0.187905 -0.030082
v 0.170901 0.068109 -0.036437
v 0.041781 0.126553 0.182420
v -0.044344 0.163879 0.141581
v -0.148843 0.242547 -0.004737
v -0.159215 0.220226 0.029157
v -0.130440 0.246821 0.032215
v 0.009581 -0.011795 -0.067200
v 0.000943 -0.003084 -0.195119
v 0.005472 0.018111 -0.216625
v -0.090191 -0.000557 -0.109118
v -0.110741 0.022498 -0.121804
v 0.136912 -0.004969 -0.044173
v 0.160511 0.016163 -0.044500
v 0.025289 -0.005394 0.167077
v 0.042655 0.044025 0.187283
v 0.160348 0.015811 -0.002794
v 0.136142 -0.006395 -0.002418
v 0.053024 0.012280 0.169834
v -0.138663 -0.002459 0.068755
v -0.156449 0.022940 0.069861
vt 0.933601 0.859360
vt 0.964625 0.897673
vt 0.938867 0.905213
vt 0.932274 0.896386
vt 0.972795 0.858455
vt 0.637506 0.933977
vt 0.664553 0.923564
vt 0.661156 0.950091
vt 0.970950 0.810409
vt 0.987785 0.830479
vt 0.941426 0.838317
vt 0.935004 0.832941
vt 0.733586 0.918211
vt 0.732639 0.890317
vt 0.740511 0.885637
vt 0.786936 0.890185
vt 0.709382 0.950140
vt 0.751012 0.950795
vt 0.786936 0.934711
vt 0.938747 0.936064
vt 0.933782 0.928002
vt 0.299762 0.879322
vt 0.309337 0.891549
vt 0.266528 0.900362
vt 0.989249 0.859576
vt 0.988371 0.896247
vt 0.979915 0.895012
vt 0.321650 0.919660
vt 0.266528 0.939406
vt 0.659150 0.892153
vt 0.668260 0.888833
vt 0.562150 0.782729
vt 0.606646 0.782460
vt 0.557273 0.797473
vt 0.619620 0.833296
vt 0.615614 0.840825
vt 0.563710 0.840737
vt 0.555623 0.828119
vt 0.992516 0.798262
vt 0.934049 0.802323
vt 0.990412 0.777101
vt 0.933015 0.780771
vt 0.618419 0.812435
vt 0.719951 0.898382
vt 0.933015 0.842338
vt 0.724427 0.912090
vt 0.989249 0.945501
vt 0.554400 0.840825
vt 0.324164 0.932174
vt 0.270902 0.955143
vt 0.967498 0.945009
vt 0.658819 0.956989
vt 0.631046 0.934865
vt 0.656230 0.886178
vt 0.665478 0.882261
vt 0.989667 0.768574
vt 0.983242 0.766717
vt 0.718551 0.891414
vt 0.710474 0.956989
vt 0.935283 0.774631
vn -0.4222 0.3518 -0.8354
vn -0.7805 0.1124 -0.6150
vn -0.7460 0.1499 -0.6489
vn -0.3632 0.2754 -0.8901
vn 0.1140 0.1405 -0.9835
vn -0.0067 -0.8700 -0.4930
vn -0.0131 -0.9995 -0.0301
vn -0.4423 -0.8573 -0.2634
vn -0.4435 0.2771 0.8524
vn -0.3277 0.5020 0.8004
vn -0.5143 0.6122 0.6005
vn -0.5832 0.5289 0.6166
vn -0.1209 0.9848 -0.1244
vn -0.0697 0.9945 -0.0781
vn 0.0213 0.9996 -0.0160
vn 0.0148 0.9992 -0.0374
vn -0.4181 -0.9031 -0.0984
vn 0.0112 0.9987 -0.0490
vn -0.9613 -0.0231 -0.2747
vn -0.9572 0.0009 -0.2895
vn 0.7273 0.4644 -0.5053
vn 0.7598 0.2240 -0.6104
vn 0.7588 0.1402 -0.6360
vn 0.0492 -0.0172 -0.9986
vn -0.8529 -0.0063 -0.5221
vn -0.8078 0.0073 -0.5894
vn 0.7502 0.0072 -0.6612
vn 0.4304 -0.8754 -0.2203
vn 0.3870 -0.9148 0.1159
vn 0.7533 0.3884 0.5307
vn 0.7563 0.3691 0.5402
vn 0.8222 0.2124 0.5281
vn 0.8597 0.0581 0.5075
vn 0.8526 0.0971 0.5135
vn 0.9304 0.0044 0.3665
vn 0.9138 -0.0025 0.4061
vn -0.4181 0.1314 0.8988
vn -0.5527 0.1094 0.8261
vn -0.3857 -0.1737 0.9061
vn -0.5030 -0.1002 0.8584
vn 0.8396 0.1454 0.5234
vn 0.2471 -0.9531 0.1750
vn -0.6710 0.6968 0.2535
vn -0.4816 0.8017 -0.3541
vn -0.9669 -0.0636 -0.2472
vn 0.9805 -0.1965 0.0022
vn 0.7434 -0.0588 -0.6662
vn -0.9654 -0.0575 -0.2544
vn -0.6514 -0.6505 -0.3905
vn 0.0646 -0.7593 -0.6475
vn 0.6508 -0.7258 -0.2229
vn 0.6359 -0.7580 0.1451
vn 0.1839 -0.4267 0.8855
vn -0.3290 -0.3042 0.8940
vn 0.5599 -0.7503 0.3515
vn -0.7466 -0.6367 -0.1928
vn -0.4867 -0.2418 0.8394
s 1
f 1/1/1 4/2/2 3/3/3 2/4/4
f 4/2/2 1/1/1 5/5/5
f 18/6/6 17/7/7 20/8/8
f 13/9/9 9/10/10 16/11/11 15/12/12
f 2/13/13 14/14/14 16/15/15 9/16/16
f 20/8/8 17/7/7 29/17/17
f 1/18/18 2/13/13 9/16/16 8/19/18
f 3/3/3 4/2/2 15/20/19 14/21/20
f 8/22/21 10/23/22 1/24/23
f 5/5/5 19/25/24 21/26/25 6/27/26
f 1/24/23 10/23/22 11/28/27 5/29/5
f 22/30/28 27/31/29 17/7/7 18/6/6
f 8/32/30 9/33/31 10/34/32
f 25/35/33 28/36/34 26/37/35 11/38/36
f 12/39/37 13/9/9 7/40/38 25/41/39
f 7/40/38 30/42/40 25/41/39
f 13/9/9 12/39/37 9/10/10
f 10/34/32 12/43/41 25/35/33 11/38/36
f 17/7/7 27/31/29 24/44/42 29/17/17
f 14/45/43 15/12/12 16/11/11
f 2/13/13 3/46/44 14/14/14
f 30/47/45 6/27/26 21/26/25
f 11/38/36 26/37/35 23/48/46
f 5/29/5 11/28/27 23/49/47 19/50/24
f 4/2/2 6/27/26 30/47/45 7/51/48
f 7/40/38 13/9/9 15/12/12
f 4/2/2 7/51/48 15/20/19
f 6/27/26 4/2/2 5/5/5
f 9/33/31 12/43/41 10/34/32
f 21/52/49 19/53/50 18/6/6 20/8/8
f 22/30/28 18/6/6 19/53/50 23/54/51
f 27/31/29 22/30/28 23/54/51 26/55/52
f 28/56/53 25/41/39 24/57/54
f 26/55/52 28/58/55 24/44/42 27/31/29
f 20/8/8 29/17/17 30/59/56 21/52/49
f 25/41/39 30/42/40 29/60/57 24/57/54
